
<svg viewBox="0 0 740 180" xmlns="http://www.w3.org/2000/svg" style="background-color:#FFFFFF">
  <polygon points="50,50 50,130 190,130 190,50" fill="#F6BCAE" style="stroke:#000000;stroke-width:2" />
  <polygon points="190,50 190,130 290,130 290,50" fill="#CBE5C0" style="stroke:#000000;stroke-width:2" />
  <polygon points="290,50 290,130 390,130 390,50" fill="#CBE5C0" style="stroke:#000000;stroke-width:2" />
  <polygon points="390,50 390,130 450,130 450,50" fill="#F6BCAE" style="stroke:#000000;stroke-width:2" />
  <polygon points="450,50 450,130 550,130 550,50" fill="#CDEBF3" style="stroke:#000000;stroke-width:2" />
  <polygon points="550,50 550,130 690,130 690,50" fill="#D6C7DE" style="stroke:#000000;stroke-width:2" />
  <line x1="70" y1="50" x2="70" y2="70" style="stroke:#000000;stroke-width:2" />
  <line x1="70" y1="110" x2="70" y2="130" style="stroke:#000000;stroke-width:2" />
  <line x1="90" y1="50" x2="90" y2="70" style="stroke:#000000;stroke-width:2" />
  <line x1="90" y1="110" x2="90" y2="130" style="stroke:#000000;stroke-width:2" />
  <line x1="110" y1="50" x2="110" y2="70" style="stroke:#000000;stroke-width:2" />
  <line x1="110" y1="110" x2="110" y2="130" style="stroke:#000000;stroke-width:2" />
  <line x1="130" y1="50" x2="130" y2="70" style="stroke:#000000;stroke-width:2" />
  <line x1="130" y1="110" x2="130" y2="130" style="stroke:#000000;stroke-width:2" />
  <line x1="150" y1="50" x2="150" y2="70" style="stroke:#000000;stroke-width:2" />
  <line x1="150" y1="110" x2="150" y2="130" style="stroke:#000000;stroke-width:2" />
  <line x1="170" y1="50" x2="170" y2="70" style="stroke:#000000;stroke-width:2" />
  <line x1="170" y1="110" x2="170" y2="130" style="stroke:#000000;stroke-width:2" />
  <line x1="210" y1="50" x2="210" y2="70" style="stroke:#000000;stroke-width:2" />
  <line x1="210" y1="110" x2="210" y2="130" style="stroke:#000000;stroke-width:2" />
  <line x1="230" y1="50" x2="230" y2="70" style="stroke:#000000;stroke-width:2" />
  <line x1="230" y1="110" x2="230" y2="130" style="stroke:#000000;stroke-width:2" />
  <line x1="250" y1="50" x2="250" y2="70" style="stroke:#000000;stroke-width:2" />
  <line x1="250" y1="110" x2="250" y2="130" style="stroke:#000000;stroke-width:2" />
  <line x1="270" y1="50" x2="270" y2="70" style="stroke:#000000;stroke-width:2" />
  <line x1="270" y1="110" x2="270" y2="130" style="stroke:#000000;stroke-width:2" />
  <line x1="310" y1="50" x2="310" y2="70" style="stroke:#000000;stroke-width:2" />
  <line x1="310" y1="110" x2="310" y2="130" style="stroke:#000000;stroke-width:2" />
  <line x1="330" y1="50" x2="330" y2="70" style="stroke:#000000;stroke-width:2" />
  <line x1="330" y1="110" x2="330" y2="130" style="stroke:#000000;stroke-width:2" />
  <line x1="350" y1="50" x2="350" y2="70" style="stroke:#000000;stroke-width:2" />
  <line x1="350" y1="110" x2="350" y2="130" style="stroke:#000000;stroke-width:2" />
  <line x1="370" y1="50" x2="370" y2="70" style="stroke:#000000;stroke-width:2" />
  <line x1="370" y1="110" x2="370" y2="130" style="stroke:#000000;stroke-width:2" />
  <line x1="410" y1="50" x2="410" y2="70" style="stroke:#000000;stroke-width:2" />
  <line x1="410" y1="110" x2="410" y2="130" style="stroke:#000000;stroke-width:2" />
  <line x1="430" y1="50" x2="430" y2="70" style="stroke:#000000;stroke-width:2" />
  <line x1="430" y1="110" x2="430" y2="130" style="stroke:#000000;stroke-width:2" />
  <line x1="470" y1="50" x2="470" y2="70" style="stroke:#000000;stroke-width:2" />
  <line x1="470" y1="110" x2="470" y2="130" style="stroke:#000000;stroke-width:2" />
  <line x1="490" y1="50" x2="490" y2="70" style="stroke:#000000;stroke-width:2" />
  <line x1="490" y1="110" x2="490" y2="130" style="stroke:#000000;stroke-width:2" />
  <line x1="510" y1="50" x2="510" y2="70" style="stroke:#000000;stroke-width:2" />
  <line x1="510" y1="110" x2="510" y2="130" style="stroke:#000000;stroke-width:2" />
  <line x1="530" y1="50" x2="530" y2="70" style="stroke:#000000;stroke-width:2" />
  <line x1="530" y1="110" x2="530" y2="130" style="stroke:#000000;stroke-width:2" />
  <line x1="570" y1="50" x2="570" y2="70" style="stroke:#000000;stroke-width:2" />
  <line x1="570" y1="110" x2="570" y2="130" style="stroke:#000000;stroke-width:2" />
  <line x1="590" y1="50" x2="590" y2="70" style="stroke:#000000;stroke-width:2" />
  <line x1="590" y1="110" x2="590" y2="130" style="stroke:#000000;stroke-width:2" />
  <line x1="610" y1="50" x2="610" y2="70" style="stroke:#000000;stroke-width:2" />
  <line x1="610" y1="110" x2="610" y2="130" style="stroke:#000000;stroke-width:2" />
  <line x1="630" y1="50" x2="630" y2="70" style="stroke:#000000;stroke-width:2" />
  <line x1="630" y1="110" x2="630" y2="130" style="stroke:#000000;stroke-width:2" />
  <line x1="650" y1="50" x2="650" y2="70" style="stroke:#000000;stroke-width:2" />
  <line x1="650" y1="110" x2="650" y2="130" style="stroke:#000000;stroke-width:2" />
  <line x1="670" y1="50" x2="670" y2="70" style="stroke:#000000;stroke-width:2" />
  <line x1="670" y1="110" x2="670" y2="130" style="stroke:#000000;stroke-width:2" />
  <text x="120" y="90" fill="#000000" dominant-baseline="middle" text-anchor="middle" font-size="16">funct7</text>
  <text x="240" y="90" fill="#000000" dominant-baseline="middle" text-anchor="middle" font-size="16">rs2</text>
  <text x="340" y="90" fill="#000000" dominant-baseline="middle" text-anchor="middle" font-size="16">rs1</text>
  <text x="420" y="90" fill="#000000" dominant-baseline="middle" text-anchor="middle" font-size="16">funct3</text>
  <text x="500" y="90" fill="#000000" dominant-baseline="middle" text-anchor="middle" font-size="16">rd</text>
  <text x="620" y="90" fill="#000000" dominant-baseline="middle" text-anchor="middle" font-size="16">opcode</text>
  <text x="680" y="140" fill="#000000" dominant-baseline="hanging" text-anchor="middle" font-size="16">0</text>
  <text x="540" y="140" fill="#000000" dominant-baseline="hanging" text-anchor="middle" font-size="16">7</text>
  <text x="440" y="140" fill="#000000" dominant-baseline="hanging" text-anchor="middle" font-size="16">12</text>
  <text x="380" y="140" fill="#000000" dominant-baseline="hanging" text-anchor="middle" font-size="16">15</text>
  <text x="280" y="140" fill="#000000" dominant-baseline="hanging" text-anchor="middle" font-size="16">20</text>
  <text x="180" y="140" fill="#000000" dominant-baseline="hanging" text-anchor="middle" font-size="16">25</text>
  <text x="120" y="30" fill="#000000" dominant-baseline="auto" text-anchor="middle" font-size="16">7</text>
  <text x="240" y="30" fill="#000000" dominant-baseline="auto" text-anchor="middle" font-size="16">5</text>
  <text x="340" y="30" fill="#000000" dominant-baseline="auto" text-anchor="middle" font-size="16">5</text>
  <text x="420" y="30" fill="#000000" dominant-baseline="auto" text-anchor="middle" font-size="16">3</text>
  <text x="500" y="30" fill="#000000" dominant-baseline="auto" text-anchor="middle" font-size="16">5</text>
  <text x="620" y="30" fill="#000000" dominant-baseline="auto" text-anchor="middle" font-size="16">7</text>
  <line x1="50" y1="35" x2="190" y2="35" style="stroke:#000000;stroke-width:2" />
  <line x1="50" y1="30" x2="50" y2="40" style="stroke:#000000;stroke-width:2" />
  <line x1="190" y1="30" x2="190" y2="40" style="stroke:#000000;stroke-width:2" />
  <line x1="190" y1="35" x2="290" y2="35" style="stroke:#000000;stroke-width:2" />
  <line x1="190" y1="30" x2="190" y2="40" style="stroke:#000000;stroke-width:2" />
  <line x1="290" y1="30" x2="290" y2="40" style="stroke:#000000;stroke-width:2" />
  <line x1="290" y1="35" x2="390" y2="35" style="stroke:#000000;stroke-width:2" />
  <line x1="290" y1="30" x2="290" y2="40" style="stroke:#000000;stroke-width:2" />
  <line x1="390" y1="30" x2="390" y2="40" style="stroke:#000000;stroke-width:2" />
  <line x1="390" y1="35" x2="450" y2="35" style="stroke:#000000;stroke-width:2" />
  <line x1="390" y1="30" x2="390" y2="40" style="stroke:#000000;stroke-width:2" />
  <line x1="450" y1="30" x2="450" y2="40" style="stroke:#000000;stroke-width:2" />
  <line x1="450" y1="35" x2="550" y2="35" style="stroke:#000000;stroke-width:2" />
  <line x1="450" y1="30" x2="450" y2="40" style="stroke:#000000;stroke-width:2" />
  <line x1="550" y1="30" x2="550" y2="40" style="stroke:#000000;stroke-width:2" />
  <line x1="550" y1="35" x2="690" y2="35" style="stroke:#000000;stroke-width:2" />
  <line x1="550" y1="30" x2="550" y2="40" style="stroke:#000000;stroke-width:2" />
  <line x1="690" y1="30" x2="690" y2="40" style="stroke:#000000;stroke-width:2" />
  <polygon points="700,90 710,100 710,80" fill="#000000" />
</svg>