
<svg viewBox="0 0 900 180" xmlns="http://www.w3.org/2000/svg" style="background-color:#FFFFFF">
  <polygon points="50,50 50,130 100,130 100,50" fill="#FFFFFF" style="stroke:#000000;stroke-width:2" />
  <polygon points="100,50 100,130 350,130 350,50" fill="#7AF0A7" style="stroke:#000000;stroke-width:2" />
  <polygon points="350,50 350,130 600,130 600,50" fill="#7AF0A7" style="stroke:#000000;stroke-width:2" />
  <polygon points="600,50 600,130 850,130 850,50" fill="#D37373" style="stroke:#000000;stroke-width:2" />
  <line x1="150" y1="50" x2="150" y2="70" style="stroke:#000000;stroke-width:2" />
  <line x1="150" y1="110" x2="150" y2="130" style="stroke:#000000;stroke-width:2" />
  <line x1="200" y1="50" x2="200" y2="70" style="stroke:#000000;stroke-width:2" />
  <line x1="200" y1="110" x2="200" y2="130" style="stroke:#000000;stroke-width:2" />
  <line x1="250" y1="50" x2="250" y2="70" style="stroke:#000000;stroke-width:2" />
  <line x1="250" y1="110" x2="250" y2="130" style="stroke:#000000;stroke-width:2" />
  <line x1="300" y1="50" x2="300" y2="70" style="stroke:#000000;stroke-width:2" />
  <line x1="300" y1="110" x2="300" y2="130" style="stroke:#000000;stroke-width:2" />
  <line x1="400" y1="50" x2="400" y2="70" style="stroke:#000000;stroke-width:2" />
  <line x1="400" y1="110" x2="400" y2="130" style="stroke:#000000;stroke-width:2" />
  <line x1="450" y1="50" x2="450" y2="70" style="stroke:#000000;stroke-width:2" />
  <line x1="450" y1="110" x2="450" y2="130" style="stroke:#000000;stroke-width:2" />
  <line x1="500" y1="50" x2="500" y2="70" style="stroke:#000000;stroke-width:2" />
  <line x1="500" y1="110" x2="500" y2="130" style="stroke:#000000;stroke-width:2" />
  <line x1="550" y1="50" x2="550" y2="70" style="stroke:#000000;stroke-width:2" />
  <line x1="550" y1="110" x2="550" y2="130" style="stroke:#000000;stroke-width:2" />
  <line x1="650" y1="50" x2="650" y2="70" style="stroke:#000000;stroke-width:2" />
  <line x1="650" y1="110" x2="650" y2="130" style="stroke:#000000;stroke-width:2" />
  <line x1="700" y1="50" x2="700" y2="70" style="stroke:#000000;stroke-width:2" />
  <line x1="700" y1="110" x2="700" y2="130" style="stroke:#000000;stroke-width:2" />
  <line x1="750" y1="50" x2="750" y2="70" style="stroke:#000000;stroke-width:2" />
  <line x1="750" y1="110" x2="750" y2="130" style="stroke:#000000;stroke-width:2" />
  <line x1="800" y1="50" x2="800" y2="70" style="stroke:#000000;stroke-width:2" />
  <line x1="800" y1="110" x2="800" y2="130" style="stroke:#000000;stroke-width:2" />
  <text x="75" y="90" fill="#000000" dominant-baseline="middle" text-anchor="middle" font-size="16">X</text>
  <text x="225" y="90" fill="#000000" dominant-baseline="middle" text-anchor="middle" font-size="16">rs2</text>
  <text x="475" y="90" fill="#000000" dominant-baseline="middle" text-anchor="middle" font-size="16">rd/rs1</text>
  <text x="725" y="90" fill="#000000" dominant-baseline="middle" text-anchor="middle" font-size="16">op</text>
  <text x="825" y="140" fill="#000000" dominant-baseline="hanging" text-anchor="middle" font-size="16">0</text>
  <text x="575" y="140" fill="#000000" dominant-baseline="hanging" text-anchor="middle" font-size="16">5</text>
  <text x="325" y="140" fill="#000000" dominant-baseline="hanging" text-anchor="middle" font-size="16">10</text>
  <text x="75" y="140" fill="#000000" dominant-baseline="hanging" text-anchor="middle" font-size="16">15</text>
  <polygon points="860,90 870,100 870,80" fill="#000000" />
</svg>