
<svg viewBox="0 0 900 180" xmlns="http://www.w3.org/2000/svg" style="background-color:#FFFFFF">
  <polygon points="50,50 50,130 350,130 350,50" fill="#F0B478" style="stroke:#000000;stroke-width:2" />
  <polygon points="350,50 350,130 500,130 500,50" fill="#7AF0A7" style="stroke:#000000;stroke-width:2" />
  <polygon points="500,50 500,130 600,130 600,50" fill="#F0B478" style="stroke:#000000;stroke-width:2" />
  <polygon points="600,50 600,130 750,130 750,50" fill="#7AF0A7" style="stroke:#000000;stroke-width:2" />
  <polygon points="750,50 750,130 850,130 850,50" fill="#D37373" style="stroke:#000000;stroke-width:2" />
  <line x1="100" y1="50" x2="100" y2="70" style="stroke:#000000;stroke-width:2" />
  <line x1="100" y1="110" x2="100" y2="130" style="stroke:#000000;stroke-width:2" />
  <line x1="150" y1="50" x2="150" y2="70" style="stroke:#000000;stroke-width:2" />
  <line x1="150" y1="110" x2="150" y2="130" style="stroke:#000000;stroke-width:2" />
  <line x1="200" y1="50" x2="200" y2="70" style="stroke:#000000;stroke-width:2" />
  <line x1="200" y1="110" x2="200" y2="130" style="stroke:#000000;stroke-width:2" />
  <line x1="250" y1="50" x2="250" y2="70" style="stroke:#000000;stroke-width:2" />
  <line x1="250" y1="110" x2="250" y2="130" style="stroke:#000000;stroke-width:2" />
  <line x1="300" y1="50" x2="300" y2="70" style="stroke:#000000;stroke-width:2" />
  <line x1="300" y1="110" x2="300" y2="130" style="stroke:#000000;stroke-width:2" />
  <line x1="400" y1="50" x2="400" y2="70" style="stroke:#000000;stroke-width:2" />
  <line x1="400" y1="110" x2="400" y2="130" style="stroke:#000000;stroke-width:2" />
  <line x1="450" y1="50" x2="450" y2="70" style="stroke:#000000;stroke-width:2" />
  <line x1="450" y1="110" x2="450" y2="130" style="stroke:#000000;stroke-width:2" />
  <line x1="550" y1="50" x2="550" y2="70" style="stroke:#000000;stroke-width:2" />
  <line x1="550" y1="110" x2="550" y2="130" style="stroke:#000000;stroke-width:2" />
  <line x1="650" y1="50" x2="650" y2="70" style="stroke:#000000;stroke-width:2" />
  <line x1="650" y1="110" x2="650" y2="130" style="stroke:#000000;stroke-width:2" />
  <line x1="700" y1="50" x2="700" y2="70" style="stroke:#000000;stroke-width:2" />
  <line x1="700" y1="110" x2="700" y2="130" style="stroke:#000000;stroke-width:2" />
  <line x1="800" y1="50" x2="800" y2="70" style="stroke:#000000;stroke-width:2" />
  <line x1="800" y1="110" x2="800" y2="130" style="stroke:#000000;stroke-width:2" />
  <text x="200" y="90" fill="#000000" dominant-baseline="middle" text-anchor="middle" font-size="16">funct</text>
  <text x="425" y="90" fill="#000000" dominant-baseline="middle" text-anchor="middle" font-size="16">rd'/rs1'</text>
  <text x="550" y="90" fill="#000000" dominant-baseline="middle" text-anchor="middle" font-size="16">funct</text>
  <text x="675" y="90" fill="#000000" dominant-baseline="middle" text-anchor="middle" font-size="16">rs2'</text>
  <text x="800" y="90" fill="#000000" dominant-baseline="middle" text-anchor="middle" font-size="16">op</text>
  <text x="825" y="140" fill="#000000" dominant-baseline="hanging" text-anchor="middle" font-size="16">0</text>
  <text x="725" y="140" fill="#000000" dominant-baseline="hanging" text-anchor="middle" font-size="16">2</text>
  <text x="575" y="140" fill="#000000" dominant-baseline="hanging" text-anchor="middle" font-size="16">5</text>
  <text x="475" y="140" fill="#000000" dominant-baseline="hanging" text-anchor="middle" font-size="16">7</text>
  <text x="325" y="140" fill="#000000" dominant-baseline="hanging" text-anchor="middle" font-size="16">10</text>
  <polygon points="860,90 870,100 870,80" fill="#000000" />
</svg>